<svg width="155" height="75" viewBox="0 0 155 75" fill="none" xmlns="http://www.w3.org/2000/svg">
<path d="M25.056 51.472C27.104 53.328 29.024 55.312 30.816 57.424C32.608 59.472 34.336 61.616 36 63.856C36.064 63.984 36.224 64.24 36.48 64.624C36.8 64.944 36.896 65.168 36.768 65.296C36.704 65.36 36.448 65.328 36 65.2C35.616 65.008 35.36 64.848 35.232 64.72C34.72 64.4 34.112 63.984 33.408 63.472C32.768 62.96 32.064 62.416 31.296 61.84C30.592 61.264 29.888 60.688 29.184 60.112C28.48 59.472 27.904 58.896 27.456 58.384C27.136 58.128 26.368 57.488 25.152 56.464C23.936 55.376 22.56 54.224 21.024 53.008C19.488 51.792 17.92 50.672 16.32 49.648C14.72 48.624 13.408 47.984 12.384 47.728C12.192 47.664 11.904 47.568 11.52 47.44C11.2 47.312 11.072 47.088 11.136 46.768C11.648 44.336 12.288 41.968 13.056 39.664C13.824 37.36 14.56 34.992 15.264 32.56C16.16 29.552 16.992 26.48 17.76 23.344C18.592 20.208 19.072 16.816 19.2 13.168C19.2 12.848 19.232 12.688 19.296 12.688C19.488 12.688 19.648 12.912 19.776 13.36C20.544 15.088 20.864 17.328 20.736 20.08C20.608 22.832 20.256 25.712 19.68 28.72C19.168 31.664 18.496 34.512 17.664 37.264C16.896 39.952 16.224 42.096 15.648 43.696L15.36 44.464C17.728 42.864 20.192 41.264 22.752 39.664C25.312 38.064 27.68 36.464 29.856 34.864C32.096 33.2 34.016 31.504 35.616 29.776C37.28 27.984 38.4 26.128 38.976 24.208C39.36 22.928 39.296 21.648 38.784 20.368C38.336 19.088 37.504 17.904 36.288 16.816C35.136 15.664 33.664 14.672 31.872 13.84C30.08 13.008 28.096 12.432 25.92 12.112C23.04 11.728 20.128 11.632 17.184 11.824C17.44 13.744 17.472 15.696 17.28 17.68C17.152 19.6 16.928 21.264 16.608 22.672C15.776 26.128 14.72 29.712 13.44 33.424C12.16 37.072 10.848 40.496 9.504 43.696C9.376 43.888 9.184 44.208 8.928 44.656C8.672 45.104 8.448 45.296 8.256 45.232C8.128 45.168 8.096 44.88 8.16 44.368C8.224 43.856 8.256 43.504 8.256 43.312C8.32 42.544 8.448 41.616 8.64 40.528C8.896 39.376 9.12 38.192 9.312 36.976C9.568 35.76 9.824 34.608 10.08 33.52C10.4 32.368 10.688 31.376 10.944 30.544C11.072 30.16 11.264 29.36 11.52 28.144C11.84 26.864 12.16 25.36 12.48 23.632C12.8 21.904 13.12 20.048 13.44 18.064C13.76 16.08 14.016 14.16 14.208 12.304L12.864 12.496C12.672 14.928 12.288 17.392 11.712 19.888C11.136 22.384 10.464 24.912 9.696 27.472C8.992 29.968 8.224 32.528 7.392 35.152C6.624 37.712 5.952 40.24 5.376 42.736C4.864 44.976 4.448 47.312 4.128 49.744C3.872 52.176 3.776 54.576 3.84 56.944C3.968 59.312 4.256 61.616 4.704 63.856C5.216 66.032 6.016 68.016 7.104 69.808C7.232 70.128 7.232 70.288 7.104 70.288C6.976 70.288 6.816 70.192 6.624 70C5.024 68.144 3.808 66.064 2.976 63.76C2.144 61.456 1.6 59.056 1.344 56.56C1.152 54 1.184 51.376 1.44 48.688C1.76 46 2.208 43.376 2.784 40.816C3.872 36.016 5.184 31.28 6.72 26.608C8.256 21.936 9.536 17.424 10.56 13.072C8.96 13.456 7.392 13.936 5.856 14.512C4.32 15.024 2.88 15.6 1.536 16.24C1.216 16.368 1.024 16.4 0.96 16.336C0.896 16.272 0.928 16.176 1.056 16.048C1.184 15.856 1.312 15.728 1.44 15.664C4.64 13.04 8.544 11.184 13.152 10.096C17.76 9.008 22.464 8.72 27.264 9.232C29.76 9.552 32.032 10.256 34.08 11.344C36.192 12.432 37.92 13.776 39.264 15.376C40.608 16.912 41.472 18.64 41.856 20.56C42.304 22.48 42.112 24.4 41.28 26.32C40.32 28.56 38.784 30.64 36.672 32.56C34.624 34.48 32.288 36.272 29.664 37.936C27.104 39.6 24.384 41.136 21.504 42.544C18.624 43.952 15.936 45.264 13.44 46.48C14.464 46.48 15.52 46.64 16.608 46.96C17.696 47.28 18.752 47.696 19.776 48.208C20.864 48.656 21.856 49.168 22.752 49.744C23.712 50.32 24.48 50.896 25.056 51.472ZM51.648 27.472C50.688 30.8 49.216 33.648 47.232 36.016C45.312 38.32 43.168 40.24 40.8 41.776C38.432 43.312 36.032 44.496 33.6 45.328C31.168 46.096 29.056 46.608 27.264 46.864C26.752 46.992 26.272 47.056 25.824 47.056C25.44 46.992 25.28 46.896 25.344 46.768C25.216 46.64 25.344 46.512 25.728 46.384C26.176 46.256 26.624 46.096 27.072 45.904C30.528 44.624 33.856 42.96 37.056 40.912C40.256 38.864 43.072 36.144 45.504 32.752C46.656 31.152 47.52 29.296 48.096 27.184C48.672 25.072 48.864 22.928 48.672 20.752C48.544 18.576 48 16.464 47.04 14.416C46.144 12.368 44.8 10.608 43.008 9.136C40.896 7.344 38.592 5.936 36.096 4.912C33.6 3.888 31.04 3.184 28.416 2.8C25.792 2.416 23.136 2.352 20.448 2.608C17.76 2.8 15.168 3.216 12.672 3.856C12.224 3.984 11.968 4.08 11.904 4.144C11.84 4.144 11.776 4.08 11.712 3.952C11.712 3.888 11.968 3.664 12.48 3.27999C13.504 2.64 14.848 2.064 16.512 1.55199C18.24 0.975994 20.16 0.591995 22.272 0.399998C24.448 0.207996 26.784 0.239996 29.28 0.495996C31.776 0.687998 34.336 1.264 36.96 2.224C39.648 3.12 42.176 4.528 44.544 6.44799C46.912 8.304 48.8 10.608 50.208 13.36C51.552 16.048 52.224 18.672 52.224 21.232C52.288 23.728 52.096 25.808 51.648 27.472ZM2.88 11.824C4.16 9.968 5.856 8.46399 7.968 7.31199C10.08 6.09599 12.384 5.2 14.88 4.62399C17.376 4.04799 19.968 3.792 22.656 3.856C25.408 3.92 28.064 4.24 30.624 4.816C33.184 5.392 35.552 6.256 37.728 7.408C39.968 8.56 41.824 9.968 43.296 11.632C44.32 12.848 45.088 14.16 45.6 15.568C46.176 16.912 46.464 18.32 46.464 19.792C46.528 21.2 46.368 22.576 45.984 23.92C45.664 25.264 45.184 26.512 44.544 27.664C44.416 27.92 44.096 28.368 43.584 29.008C43.072 29.584 42.752 29.808 42.624 29.68C42.496 29.616 42.592 29.264 42.912 28.624C43.232 27.984 43.456 27.504 43.584 27.184C44.096 25.52 44.288 23.888 44.16 22.288C44.096 20.624 43.776 19.088 43.2 17.68C42.688 16.272 41.984 15.024 41.088 13.936C40.192 12.784 39.232 11.856 38.208 11.152C35.776 9.552 33.024 8.432 29.952 7.792C26.88 7.088 23.744 6.832 20.544 7.024C17.408 7.152 14.336 7.696 11.328 8.65599C8.32 9.552 5.728 10.768 3.552 12.304C2.976 12.816 2.592 12.976 2.4 12.784C2.272 12.72 2.272 12.592 2.4 12.4C2.592 12.144 2.752 11.952 2.88 11.824ZM54.048 72.304C54.432 72.24 54.624 72.272 54.624 72.4C54.624 72.528 54.464 72.656 54.144 72.784C51.84 73.616 49.6 74.064 47.424 74.128C45.248 74.192 43.168 73.968 41.184 73.456C39.2 73.008 37.344 72.336 35.616 71.44C33.888 70.608 32.32 69.68 30.912 68.656C29.248 67.44 27.648 66.096 26.112 64.624C24.64 63.088 23.2 61.584 21.792 60.112C20.384 58.576 18.976 57.104 17.568 55.696C16.16 54.288 14.72 53.04 13.248 51.952C12.16 55.536 11.168 58.704 10.272 61.456C10.144 61.776 10.016 62.064 9.888 62.32C9.76 62.576 9.632 62.672 9.504 62.608C9.376 62.544 9.312 62.384 9.312 62.128C9.312 61.808 9.312 61.488 9.312 61.168C9.44 59.376 9.568 57.552 9.696 55.696C9.824 53.84 10.112 51.984 10.56 50.128C10.112 49.872 9.664 49.648 9.216 49.456C8.832 49.264 8.384 49.04 7.872 48.784C7.68 48.592 7.584 48.464 7.584 48.4C7.584 48.336 7.648 48.304 7.776 48.304C7.968 48.304 8.128 48.304 8.256 48.304C10.816 48.496 13.152 49.296 15.264 50.704C17.376 52.048 19.424 53.648 21.408 55.504C23.392 57.36 25.344 59.344 27.264 61.456C29.184 63.504 31.232 65.328 33.408 66.928C34.624 67.824 36 68.656 37.536 69.424C39.136 70.128 40.832 70.736 42.624 71.248C44.416 71.76 46.272 72.112 48.192 72.304C50.176 72.56 52.128 72.56 54.048 72.304ZM39.168 58.288C40.96 59.888 42.656 61.68 44.256 63.664C45.92 65.648 47.52 67.248 49.056 68.464C49.504 68.912 49.696 69.232 49.632 69.424C49.504 69.552 49.344 69.584 49.152 69.52C48.96 69.456 48.736 69.392 48.48 69.328C46.752 68.752 45.12 67.952 43.584 66.928C42.112 65.904 40.672 64.752 39.264 63.472C37.856 62.192 36.48 60.848 35.136 59.44C33.856 58.032 32.544 56.656 31.2 55.312C30.304 54.416 29.312 53.424 28.224 52.336C27.2 51.248 26.112 50.256 24.96 49.36C23.808 48.4 22.592 47.632 21.312 47.056C20.096 46.416 18.816 46.096 17.472 46.096L21.216 44.464C22.176 44.016 23.36 43.472 24.768 42.832C26.176 42.192 27.52 41.584 28.8 41.008C30.08 40.432 31.2 39.984 32.16 39.664C33.12 39.28 33.632 39.12 33.696 39.184C33.76 39.312 33.632 39.536 33.312 39.856C33.056 40.176 32.672 40.528 32.16 40.912C31.712 41.296 31.264 41.648 30.816 41.968C30.368 42.288 30.048 42.48 29.856 42.544C28.64 43.248 27.488 43.92 26.4 44.56C25.376 45.136 24.32 45.68 23.232 46.192C24.704 46.768 26.208 47.6 27.744 48.688C29.28 49.712 30.752 50.832 32.16 52.048C33.568 53.264 34.88 54.448 36.096 55.6C37.312 56.688 38.336 57.584 39.168 58.288ZM8.064 64.24C8.256 65.328 8.512 66.384 8.832 67.408C9.152 68.432 9.536 69.296 9.984 70C10.048 70 10.08 70.032 10.08 70.096C10.144 70.224 10.112 70.288 9.984 70.288C9.856 70.288 9.696 70.224 9.504 70.096C9.376 70.032 9.248 70 9.12 70C8.288 69.488 7.616 68.88 7.104 68.176C6.656 67.408 6.272 66.096 5.952 64.24C5.824 63.536 5.76 62.64 5.76 61.552C5.76 60.464 5.792 59.44 5.856 58.48C5.92 57.456 6.016 56.592 6.144 55.888C6.272 55.184 6.464 54.832 6.72 54.832C6.784 54.832 6.848 54.992 6.912 55.312C7.04 55.632 7.136 56.016 7.2 56.464C7.264 56.848 7.296 57.232 7.296 57.616C7.36 58 7.392 58.256 7.392 58.384C7.52 59.472 7.616 60.496 7.68 61.456C7.744 62.416 7.872 63.344 8.064 64.24ZM50.112 70.288C51.136 70.352 51.904 70.352 52.416 70.288C52.992 70.288 53.728 70.224 54.624 70.096C54.688 70.096 54.848 70.064 55.104 70C55.36 70 55.52 70.032 55.584 70.096C55.648 70.224 55.552 70.384 55.296 70.576C55.104 70.768 54.944 70.896 54.816 70.96C53.792 71.28 52.832 71.504 51.936 71.632C51.104 71.76 49.856 71.728 48.192 71.536C47.616 71.472 46.976 71.344 46.272 71.152C45.568 70.96 44.928 70.736 44.352 70.48C43.776 70.288 43.328 70.096 43.008 69.904C42.688 69.648 42.624 69.456 42.816 69.328C42.944 69.264 43.328 69.328 43.968 69.52C44.672 69.648 45.152 69.744 45.408 69.808C46.304 70 47.136 70.128 47.904 70.192C48.672 70.256 49.408 70.288 50.112 70.288ZM92.0318 36.208C91.5198 38.768 90.6558 41.328 89.4398 43.888C88.2238 46.448 87.0718 48.848 85.9838 51.088C85.9198 51.216 85.7598 51.44 85.5038 51.76C85.3118 52.08 85.1518 52.24 85.0238 52.24C84.8318 52.176 84.7358 51.984 84.7358 51.664C84.7358 51.28 84.7358 51.024 84.7358 50.896C84.7998 50.32 84.8958 49.648 85.0238 48.88C85.2158 48.048 85.3758 47.216 85.5038 46.384C85.6318 45.488 85.7598 44.656 85.8878 43.888C86.0798 43.056 86.2718 42.32 86.4638 41.68C87.0398 39.504 87.5198 37.648 87.9038 36.112C88.2878 34.512 88.5758 33.072 88.7678 31.792C88.9598 30.512 89.0558 29.296 89.0558 28.144C89.1198 26.992 89.0558 25.744 88.8638 24.4C88.7998 23.888 88.8318 23.568 88.9598 23.44C89.0878 23.376 89.2478 23.44 89.4398 23.632C89.6318 23.824 89.7918 24.016 89.9198 24.208C91.0078 25.936 91.7438 27.856 92.1278 29.968C92.5118 32.016 92.4798 34.096 92.0318 36.208ZM94.3358 29.776C95.1678 30.992 95.5838 32.592 95.5838 34.576C95.5838 36.56 95.3918 38.608 95.0078 40.72C94.6238 42.768 94.1438 44.752 93.5678 46.672C92.9918 48.592 92.5758 50.128 92.3198 51.28C91.8078 53.52 91.1038 55.76 90.2078 58C89.3118 60.24 88.5438 62.224 87.9038 63.952C87.8398 64.144 87.7438 64.368 87.6158 64.624C87.4878 64.816 87.3598 64.912 87.2318 64.912C87.1038 64.912 87.0398 64.784 87.0398 64.528C87.0398 64.272 87.0398 64.048 87.0398 63.856C86.8478 60.336 87.2318 56.912 88.1918 53.584C89.1518 50.192 90.1758 46.768 91.2638 43.312C91.9038 41.2 92.5118 39.056 93.0878 36.88C93.6638 34.64 93.9198 32.208 93.8558 29.584C93.8558 29.328 93.8878 29.2 93.9518 29.2L94.3358 29.776ZM85.3118 28.144C81.4078 29.744 78.0798 32.048 75.3278 35.056C72.6398 38 70.5598 41.328 69.0878 45.04C68.4478 46.704 67.9678 48.208 67.6478 49.552C67.3278 50.832 67.0718 52.24 66.8798 53.776C66.8158 54.096 66.9118 54.416 67.1678 54.736C67.4238 55.056 67.6798 55.056 67.9358 54.736C69.0878 53.328 70.5598 51.536 72.3518 49.36C74.1438 47.184 75.9358 44.88 77.7278 42.448C79.5198 40.016 81.1198 37.552 82.5278 35.056C83.9998 32.56 84.9278 30.256 85.3118 28.144ZM78.8798 60.688C77.9198 62.032 76.9918 63.28 76.0958 64.432C75.1998 65.584 74.2078 66.608 73.1198 67.504C72.0318 68.336 70.8158 69.008 69.4718 69.52C68.1278 70.032 66.5918 70.32 64.8638 70.384C61.9838 70.512 59.7758 69.776 58.2398 68.176C56.7678 66.576 55.7438 64.624 55.1678 62.32C54.5918 60.016 54.3678 57.648 54.4958 55.216C54.6878 52.72 55.0398 50.672 55.5518 49.072C56.2558 46.832 57.0878 44.72 58.0478 42.736C59.0718 40.688 60.1278 38.864 61.2158 37.264C62.3678 35.6 63.5198 34.192 64.6718 33.04C65.8878 31.824 67.0718 30.896 68.2238 30.256C68.2878 30.256 68.4158 30.192 68.6078 30.064C68.8638 29.936 68.9918 29.968 68.9918 30.16C69.0558 30.16 69.0238 30.256 68.8958 30.448C68.7678 30.64 68.6398 30.8 68.5118 30.928C65.1838 34.384 62.5278 38.288 60.5438 42.64C58.6238 46.992 57.5358 51.472 57.2798 56.08C57.2158 57.232 57.2478 58.48 57.3758 59.824C57.5678 61.168 57.8878 62.448 58.3358 63.664C58.8478 64.816 59.5518 65.808 60.4478 66.64C61.3438 67.408 62.5598 67.792 64.0958 67.792C65.3118 67.792 66.4318 67.6 67.4557 67.216C68.4798 66.768 69.4398 66.224 70.3358 65.584C71.2318 64.88 72.0318 64.144 72.7358 63.376C73.5038 62.544 74.1758 61.776 74.7518 61.072C76.0318 59.472 77.2158 57.808 78.3038 56.08C78.3038 54.8 78.3678 53.552 78.4958 52.336C78.6878 51.12 78.9438 49.904 79.2638 48.688C79.4558 47.792 79.6158 47.088 79.7438 46.576C79.9358 46 80.0958 45.488 80.2238 45.04C80.4158 44.528 80.5758 44.016 80.7038 43.504C80.8958 42.928 81.1518 42.192 81.4718 41.296C80.4478 43.088 79.4238 44.784 78.3998 46.384C77.4398 47.92 76.3838 49.424 75.2318 50.896C74.1438 52.304 72.9918 53.712 71.7758 55.12C70.6238 56.464 69.3438 57.84 67.9358 59.248C66.8478 60.336 65.9518 60.688 65.2478 60.304C64.5438 59.92 64.1278 59.024 63.9998 57.616C63.8718 55.44 63.9678 53.328 64.2878 51.28C64.6718 49.232 65.3118 47.088 66.2078 44.848C67.0398 42.8 68.0638 40.816 69.2798 38.896C70.5598 36.976 71.9998 35.248 73.5998 33.712C75.2638 32.112 77.0878 30.768 79.0718 29.68C81.0558 28.528 83.1678 27.76 85.4078 27.376C85.5358 26.672 85.6318 26.064 85.6958 25.552C85.8238 25.04 85.9198 24.528 85.9838 24.016C86.1118 23.312 86.1758 22.96 86.1758 22.96C86.3038 22.896 86.4318 22.96 86.5598 23.152C86.7518 23.344 86.9118 23.6 87.0398 23.92C87.8078 26.032 88.0638 28.144 87.8078 30.256C87.5518 32.368 87.0718 34.512 86.3678 36.688C85.7278 38.864 84.9598 41.104 84.0638 43.408C83.1678 45.648 82.4318 47.92 81.8558 50.224C81.0878 53.488 80.8638 56.88 81.1838 60.4C81.5678 63.856 82.9438 66.992 85.3118 69.808C85.5038 70.064 85.5998 70.192 85.5998 70.192C85.5358 70.256 85.3438 70.192 85.0238 70C83.1678 68.848 81.7598 67.472 80.7998 65.872C79.9038 64.208 79.2638 62.48 78.8798 60.688ZM82.2398 26.704C82.3678 26.832 82.3358 26.928 82.1438 26.992C82.0158 27.056 81.6958 27.152 81.1838 27.28C80.3518 27.536 79.3278 28.016 78.1118 28.72C76.9598 29.424 75.7118 30.32 74.3678 31.408C73.0878 32.496 71.8078 33.776 70.5278 35.248C69.2478 36.656 68.1278 38.192 67.1678 39.856C66.2078 41.584 65.3758 43.28 64.6718 44.944C64.0318 46.608 63.4878 48.144 63.0398 49.552C62.6558 50.896 62.3678 52.08 62.1758 53.104C61.9838 54.064 61.8878 54.736 61.8878 55.12C61.8878 56.08 61.8878 57.104 61.8878 58.192C61.8878 59.216 62.0158 60.144 62.2718 60.976C62.5278 61.808 62.9758 62.448 63.6158 62.896C64.2558 63.344 65.2158 63.472 66.4958 63.28C66.5598 63.28 66.7198 63.248 66.9758 63.184C67.2318 63.056 67.4878 62.96 67.7438 62.896C67.9998 62.768 68.2238 62.672 68.4158 62.608C68.6718 62.544 68.8318 62.512 68.8958 62.512C68.9598 62.64 68.8958 62.8 68.7038 62.992C68.5758 63.184 68.3838 63.408 68.1278 63.664C67.8718 63.856 67.6158 64.048 67.3598 64.24C67.1678 64.432 67.0398 64.56 66.9758 64.624C65.3758 65.584 64.0318 65.872 62.9438 65.488C61.8558 65.104 60.9918 64.4 60.3518 63.376C59.7758 62.288 59.3598 61.04 59.1038 59.632C58.9118 58.16 58.8478 56.848 58.9118 55.696C59.0398 53.456 59.3918 51.248 59.9678 49.072C60.5438 46.832 61.2798 44.592 62.1758 42.352C62.8798 40.624 63.9358 38.864 65.3438 37.072C66.7517 35.216 68.3198 33.52 70.0478 31.984C71.8398 30.448 73.6958 29.2 75.6158 28.24C77.5358 27.216 79.3918 26.672 81.1838 26.608C81.8238 26.608 82.1758 26.64 82.2398 26.704ZM87.9038 69.808C88.0318 70 88.0638 70.128 87.9998 70.192C87.8078 70.192 87.5518 70.128 87.2318 70C87.0398 69.872 86.5278 69.488 85.6958 68.848C84.8638 68.208 84.2558 67.184 83.8718 65.776C83.7438 65.264 83.6158 64.624 83.4878 63.856C83.4238 63.024 83.3918 62.256 83.3918 61.552C83.3918 60.848 83.4238 60.24 83.4878 59.728C83.6158 59.216 83.7758 58.96 83.9678 58.96C84.1598 58.96 84.3518 59.344 84.5438 60.112C84.7998 60.88 84.9598 61.36 85.0238 61.552C85.2158 62.448 85.3758 63.248 85.5038 63.952C85.6958 64.592 85.8878 65.2 86.0798 65.776C86.3358 66.48 86.6558 67.28 87.0398 68.176C87.4878 69.072 87.7758 69.616 87.9038 69.808ZM124.142 27.376C124.206 27.44 124.238 27.6 124.238 27.856C124.238 28.048 124.206 28.208 124.142 28.336C123.566 30.192 122.574 31.504 121.166 32.272C119.758 33.04 118.51 33.424 117.422 33.424C116.078 33.424 114.702 33.328 113.294 33.136C111.886 32.88 110.542 32.272 109.262 31.312C109.134 31.184 108.974 31.056 108.782 30.928C108.59 30.8 108.494 30.672 108.494 30.544C108.494 30.352 108.59 30.224 108.782 30.16C108.974 30.032 109.134 29.936 109.262 29.872C109.838 29.744 110.574 29.648 111.47 29.584C112.43 29.456 113.358 29.456 114.254 29.584C114.894 29.712 115.662 29.776 116.558 29.776C117.454 29.776 118.35 29.712 119.246 29.584C120.206 29.456 121.07 29.264 121.838 29.008C122.606 28.688 123.182 28.24 123.566 27.664C123.758 27.408 123.95 27.312 124.142 27.376ZM124.814 24.4L124.526 24.88C123.438 26.288 122.286 27.216 121.07 27.664C119.854 28.048 118.574 28.208 117.23 28.144C115.886 28.08 114.51 27.92 113.102 27.664C111.758 27.344 110.414 27.152 109.07 27.088C107.278 27.024 105.486 27.568 103.694 28.72C101.902 29.872 100.366 31.888 99.0855 34.768C98.8935 35.152 98.7655 35.248 98.7015 35.056C98.6375 34.8 98.6375 34.576 98.7015 34.384C99.2135 32.464 99.8215 30.864 100.526 29.584C101.23 28.304 101.966 27.28 102.734 26.512C103.566 25.68 104.43 25.072 105.326 24.688C106.222 24.304 107.15 24.048 108.109 23.92C109.198 20.272 110.03 16.72 110.606 13.264C111.246 9.744 111.31 6.416 110.798 3.27999C110.798 3.02399 110.798 2.89599 110.798 2.89599C110.926 2.832 111.054 2.864 111.182 2.992C111.31 3.12 111.374 3.216 111.374 3.27999C112.782 6.352 113.358 9.648 113.102 13.168C112.846 16.624 112.206 20.272 111.182 24.112C111.502 24.176 111.758 24.208 111.95 24.208C112.142 24.208 112.366 24.208 112.622 24.208C112.942 22.544 113.23 20.784 113.486 18.928C113.806 17.008 114.03 15.184 114.158 13.456C114.35 11.728 114.414 10.16 114.35 8.752C114.286 7.344 114.062 6.288 113.678 5.584C113.486 5.008 113.486 4.72 113.678 4.72C113.806 4.72 113.902 4.784 113.966 4.912C114.03 5.04 114.126 5.168 114.254 5.296C115.15 6.192 115.854 7.408 116.366 8.944C116.878 10.48 117.23 12.112 117.422 13.84C117.614 15.568 117.678 17.296 117.614 19.024C117.55 20.688 117.358 22.16 117.038 23.44L116.654 24.976C116.846 25.104 117.038 25.168 117.23 25.168C117.422 25.168 117.614 25.2 117.806 25.264C118.19 23.344 118.51 21.424 118.766 19.504C119.086 17.584 119.214 15.568 119.15 13.456C119.15 13.008 119.182 12.784 119.246 12.784C119.374 12.784 119.47 12.88 119.534 13.072C119.598 13.264 119.662 13.424 119.726 13.552C120.494 14.96 120.846 16.72 120.781 18.832C120.781 20.944 120.622 23.184 120.302 25.552C121.71 25.552 123.054 25.168 124.334 24.4C124.654 24.208 124.814 24.208 124.814 24.4ZM104.942 30.928C104.942 31.248 104.75 31.568 104.366 31.888C104.046 32.208 103.79 32.432 103.598 32.56C103.278 32.816 102.894 33.136 102.446 33.52C102.062 33.84 101.71 34.192 101.39 34.576C101.07 35.088 100.75 35.536 100.43 35.92C100.174 36.304 99.9495 36.848 99.7575 37.552C99.6935 37.68 99.5975 37.808 99.4695 37.936C99.4055 38 99.3415 38 99.2775 37.936C99.0855 37.744 99.0855 37.328 99.2775 36.688C99.5335 35.728 99.7895 34.96 100.046 34.384C100.302 33.744 100.782 33.072 101.486 32.368C101.742 32.112 102.062 31.856 102.446 31.6C102.83 31.344 103.214 31.12 103.598 30.928C103.982 30.736 104.302 30.64 104.558 30.64C104.814 30.64 104.942 30.736 104.942 30.928ZM112.43 69.52C112.75 69.392 112.878 69.424 112.814 69.616C112.75 69.808 112.654 69.936 112.526 70C111.374 70.384 110.158 70.32 108.878 69.808C107.598 69.296 106.414 68.496 105.326 67.408C104.238 66.32 103.31 65.072 102.542 63.664C101.774 62.192 101.294 60.752 101.102 59.344C100.782 56.336 100.75 53.424 101.006 50.608C101.262 47.792 101.742 45.008 102.446 42.256L104.078 36.208C103.694 36.208 103.31 36.112 102.926 35.92C102.478 35.792 102.254 35.632 102.254 35.44C102.254 35.312 102.478 35.12 102.926 34.864C104.718 33.968 106.51 33.584 108.302 33.712C110.158 33.84 112.014 34.064 113.87 34.384C115.022 34.576 116.174 34.736 117.326 34.864C118.542 34.928 119.854 34.672 121.262 34.096C121.39 33.968 121.518 33.936 121.646 34C121.774 34.128 121.742 34.352 121.55 34.672C121.166 35.504 120.622 36.112 119.918 36.496C119.214 36.88 118.478 37.168 117.71 37.36C117.198 39.024 116.75 40.528 116.366 41.872C115.982 43.152 115.662 44.24 115.406 45.136C114.702 48.208 113.87 51.344 112.91 54.544C112.014 57.68 111.406 60.336 111.086 62.512C110.958 63.216 110.83 63.6 110.702 63.664C110.574 63.728 110.446 63.6 110.318 63.28C110.19 62.96 110.094 62.704 110.03 62.512C109.774 60.656 109.71 58.736 109.838 56.752C110.03 54.704 110.35 52.624 110.798 50.512C111.246 48.4 111.758 46.288 112.334 44.176C112.91 42 113.518 39.824 114.158 37.648C113.838 37.648 113.518 37.648 113.198 37.648C112.878 37.648 112.558 37.616 112.238 37.552C111.726 38.896 111.182 40.24 110.606 41.584C110.094 42.864 109.582 44.08 109.07 45.232C109.006 45.36 108.846 45.68 108.59 46.192C108.398 46.64 108.238 46.864 108.109 46.864C107.854 46.8 107.758 46.512 107.822 46C107.886 45.424 107.918 45.04 107.918 44.848C108.046 43.888 108.238 42.768 108.494 41.488C108.814 40.208 109.102 38.832 109.358 37.36C109.038 37.296 108.686 37.264 108.302 37.264C107.918 37.2 107.534 37.104 107.15 36.976C106.766 38.256 106.382 39.504 105.998 40.72C105.678 41.936 105.358 43.152 105.038 44.368C104.526 46.608 104.142 49.008 103.886 51.568C103.63 54.064 103.63 56.656 103.886 59.344C104.014 60.56 104.334 61.808 104.846 63.088C105.422 64.368 106.094 65.52 106.862 66.544C107.63 67.568 108.494 68.368 109.454 68.944C110.478 69.52 111.47 69.712 112.43 69.52ZM113.294 67.408C113.614 67.152 113.806 67.152 113.87 67.408C113.934 67.6 113.806 67.792 113.486 67.984C113.23 68.176 112.878 68.336 112.43 68.464C112.046 68.528 111.598 68.528 111.086 68.464C110.574 68.4 110.03 68.208 109.454 67.888C108.878 67.568 108.334 67.056 107.822 66.352C107.374 65.776 106.99 64.944 106.67 63.856C106.414 62.768 106.222 61.712 106.094 60.688C105.966 59.6 105.934 58.672 105.998 57.904C106.062 57.136 106.222 56.752 106.478 56.752C106.798 56.752 107.022 57.2 107.15 58.096C107.342 58.992 107.502 59.728 107.63 60.304C107.886 61.328 108.238 62.384 108.686 63.472C109.134 64.56 109.614 65.424 110.126 66.064C110.766 66.896 111.342 67.408 111.854 67.6C112.366 67.728 112.846 67.664 113.294 67.408ZM151.787 43.408C151.979 41.68 152.011 39.856 151.883 37.936C151.755 36.016 151.339 34.256 150.635 32.656C149.995 30.992 148.971 29.616 147.563 28.528C146.219 27.44 144.427 26.896 142.187 26.896C139.179 26.896 136.555 27.728 134.315 29.392C132.075 30.992 130.155 33.008 128.555 35.44C126.955 37.808 125.707 40.368 124.811 43.12C123.915 45.808 123.339 48.272 123.083 50.512C122.699 53.584 122.635 56.24 122.891 58.48C123.211 60.72 123.755 62.576 124.523 64.048C125.291 65.456 126.251 66.512 127.403 67.216C128.619 67.92 129.931 68.272 131.339 68.272C133.323 68.336 135.403 67.792 137.579 66.64C139.819 65.424 141.899 63.76 143.819 61.648C145.739 59.472 147.403 56.848 148.811 53.776C150.283 50.64 151.275 47.184 151.787 43.408ZM120.875 50.032C121.131 47.472 121.771 44.656 122.795 41.584C123.819 38.512 125.227 35.664 127.019 33.04C128.875 30.416 131.083 28.24 133.643 26.512C136.203 24.72 139.179 23.824 142.571 23.824C145.131 23.824 147.243 24.432 148.907 25.648C150.571 26.864 151.851 28.432 152.747 30.352C153.643 32.208 154.219 34.256 154.475 36.496C154.731 38.672 154.731 40.752 154.475 42.736C153.899 47.344 152.779 51.344 151.115 54.736C149.451 58.128 147.499 60.976 145.259 63.28C143.019 65.52 140.651 67.216 138.155 68.368C135.659 69.456 133.259 70 130.955 70C129.227 70 127.659 69.616 126.251 68.848C124.907 68.08 123.755 66.896 122.795 65.296C121.899 63.632 121.259 61.552 120.875 59.056C120.555 56.496 120.555 53.488 120.875 50.032ZM131.627 63.568C131.307 63.568 130.987 63.472 130.667 63.28C130.347 63.024 130.091 62.736 129.899 62.416C129.707 62.096 129.579 61.776 129.515 61.456C129.451 61.136 129.579 60.912 129.899 60.784C130.091 60.72 130.347 60.944 130.667 61.456C130.987 61.968 131.339 62.224 131.723 62.224C132.363 62.224 133.099 61.808 133.931 60.976C134.827 60.144 135.659 59.184 136.427 58.096C137.259 56.944 137.963 55.824 138.539 54.736C139.179 53.648 139.627 52.848 139.883 52.336C140.139 51.824 140.395 51.184 140.651 50.416C140.907 49.584 141.131 48.752 141.323 47.92C141.579 47.088 141.771 46.288 141.899 45.52C142.091 44.688 142.219 43.984 142.283 43.408C142.603 40.528 142.539 38.32 142.091 36.784C141.643 35.184 140.907 34.384 139.883 34.384C139.115 34.384 138.315 34.64 137.483 35.152C136.651 35.6 135.851 36.208 135.083 36.976C134.379 37.744 133.739 38.608 133.163 39.568C132.587 40.464 132.171 41.392 131.915 42.352C131.595 43.44 131.371 43.984 131.243 43.984C131.051 43.984 130.955 43.44 130.955 42.352C131.147 41.136 131.563 39.952 132.203 38.8C132.843 37.584 133.643 36.528 134.603 35.632C135.563 34.672 136.619 33.904 137.771 33.328C138.923 32.688 140.107 32.368 141.323 32.368C142.539 32.368 143.435 32.816 144.011 33.712C144.651 34.544 145.099 35.6 145.355 36.88C145.611 38.096 145.707 39.376 145.643 40.72C145.643 42 145.579 43.024 145.451 43.792C145.195 45.52 144.779 47.216 144.203 48.88C143.691 50.48 143.051 52.112 142.283 53.776C141.899 54.544 141.323 55.504 140.555 56.656C139.787 57.744 138.891 58.8 137.867 59.824C136.907 60.848 135.851 61.744 134.699 62.512C133.611 63.216 132.587 63.568 131.627 63.568ZM134.699 65.392C134.763 65.776 134.443 66.096 133.739 66.352C133.099 66.608 132.427 66.736 131.723 66.736C129.739 66.672 128.203 66.032 127.115 64.816C126.091 63.6 125.355 62.16 124.907 60.496C124.523 58.832 124.331 57.104 124.331 55.312C124.395 53.52 124.491 52.016 124.619 50.8C124.875 48.688 125.387 46.32 126.155 43.696C126.923 41.072 128.011 38.608 129.419 36.304C130.827 34 132.555 32.08 134.603 30.544C136.651 28.944 139.083 28.144 141.899 28.144C143.755 28.144 145.227 28.624 146.315 29.584C147.467 30.544 148.299 31.728 148.811 33.136C149.387 34.544 149.707 36.08 149.771 37.744C149.899 39.344 149.867 40.816 149.675 42.16C149.547 43.632 149.323 44.976 149.003 46.192C148.683 47.408 148.235 48.752 147.659 50.224C147.467 50.672 147.211 51.184 146.891 51.76C146.571 52.336 146.219 52.592 145.835 52.528C145.643 52.464 145.579 52.208 145.643 51.76C145.771 51.312 145.899 50.768 146.027 50.128C146.219 49.424 146.411 48.72 146.603 48.016C146.795 47.248 146.923 46.544 146.987 45.904C147.115 44.816 147.179 43.472 147.179 41.872C147.243 40.208 147.115 38.608 146.795 37.072C146.539 35.536 146.027 34.224 145.259 33.136C144.491 32.048 143.339 31.504 141.803 31.504C139.563 31.504 137.483 32.24 135.563 33.712C133.707 35.12 132.075 36.88 130.667 38.992C129.259 41.04 128.107 43.216 127.211 45.52C126.379 47.76 125.867 49.744 125.675 51.472C125.547 52.496 125.515 53.776 125.579 55.312C125.643 56.848 125.867 58.384 126.251 59.92C126.699 61.392 127.403 62.672 128.363 63.76C129.323 64.848 130.635 65.424 132.299 65.488C132.811 65.552 133.291 65.52 133.739 65.392C134.251 65.2 134.571 65.2 134.699 65.392Z" fill="black"/>
</svg>
